<?xml version="1.0" standalone="no"?>
<!DOCTYPE svg PUBLIC "-//W3C//DTD SVG 1.1//EN" "http://www.w3.org/Graphics/SVG/1.1/DTD/svg11.dtd">
<svg width="100%" height="100%" viewBox="0 0 1667 375" version="1.1" xmlns="http://www.w3.org/2000/svg" xmlns:xlink="http://www.w3.org/1999/xlink" xml:space="preserve" style="fill-rule:evenodd;clip-rule:evenodd;stroke-linejoin:round;stroke-miterlimit:1.41421;">
    <g transform="matrix(4.16667,0,0,4.16667,-0,-0)">
        <g id="Layer1" transform="matrix(1,0,0,1,0,-55)">
            <g transform="matrix(0.552145,0,0,0.552731,-1.67362,61.1182)">
                <path d="M43.259,112.023L92.247,112.023L92.247,130.806L20.5,130.806L20.5,8.464L43.259,8.464L43.259,112.023Z" style="fill:black;fill-rule:nonzero;"/>
                <path d="M129.051,43.999L129.051,130.806L108.153,130.806L108.153,43.999L129.051,43.999ZM132.181,18.702C132.181,20.507 131.814,22.199 131.081,23.778C130.348,25.357 129.375,26.739 128.162,27.924C126.95,29.108 125.525,30.053 123.89,30.758C122.254,31.463 120.505,31.816 118.644,31.816C116.839,31.816 115.133,31.463 113.525,30.758C111.918,30.053 110.522,29.108 109.337,27.924C108.153,26.739 107.208,25.357 106.503,23.778C105.798,22.199 105.445,20.507 105.445,18.702C105.445,16.84 105.798,15.092 106.503,13.456C107.208,11.82 108.153,10.41 109.337,9.226C110.522,8.041 111.918,7.096 113.525,6.391C115.133,5.686 116.839,5.334 118.644,5.334C120.505,5.334 122.254,5.686 123.89,6.391C125.525,7.096 126.95,8.041 128.162,9.226C129.375,10.41 130.348,11.82 131.081,13.456C131.814,15.092 132.181,16.84 132.181,18.702Z" style="fill:black;fill-rule:nonzero;"/>
                <path d="M156.379,130.806L156.379,59.736L148.849,58.552C147.213,58.269 145.901,57.705 144.914,56.859C143.927,56.013 143.434,54.829 143.434,53.306L143.434,44.761L156.379,44.761L156.379,38.33C156.379,33.367 157.126,28.911 158.621,24.963C160.115,21.014 162.259,17.658 165.051,14.894C167.843,12.13 171.241,10.015 175.246,8.549C179.251,7.082 183.763,6.349 188.783,6.349C192.788,6.349 196.511,6.885 199.951,7.956L199.528,18.448C199.415,20.084 198.654,21.099 197.244,21.494C195.834,21.888 194.198,22.086 192.337,22.086C189.855,22.086 187.641,22.354 185.695,22.89C183.749,23.425 182.099,24.356 180.745,25.682C179.392,27.007 178.362,28.756 177.657,30.927C176.952,33.099 176.6,35.792 176.6,39.007L176.6,44.761L199.19,44.761L199.19,59.651L177.277,59.651L177.277,130.806L156.379,130.806Z" style="fill:black;fill-rule:nonzero;"/>
                <path d="M247.839,42.645C253.31,42.645 258.344,43.52 262.941,45.268C267.538,47.017 271.501,49.569 274.829,52.925C278.156,56.281 280.751,60.399 282.612,65.278C284.474,70.157 285.404,75.727 285.404,81.988C285.404,83.567 285.334,84.878 285.193,85.922C285.052,86.965 284.798,87.783 284.431,88.375C284.065,88.968 283.571,89.391 282.951,89.645C282.33,89.898 281.541,90.025 280.582,90.025L226.941,90.025C227.561,98.937 229.959,105.48 234.133,109.654C238.306,113.828 243.834,115.915 250.716,115.915C254.1,115.915 257.019,115.52 259.472,114.731C261.926,113.941 264.069,113.067 265.902,112.108C267.736,111.149 269.343,110.275 270.725,109.485C272.107,108.695 273.447,108.3 274.744,108.3C275.59,108.3 276.323,108.47 276.944,108.808C277.564,109.147 278.1,109.626 278.551,110.246L284.643,117.861C282.33,120.568 279.736,122.839 276.859,124.672C273.982,126.505 270.979,127.972 267.848,129.071C264.718,130.171 261.531,130.947 258.288,131.398C255.045,131.849 251.9,132.075 248.854,132.075C242.819,132.075 237.207,131.074 232.017,129.071C226.828,127.069 222.316,124.108 218.48,120.188C214.645,116.268 211.627,111.417 209.427,105.635C207.227,99.854 206.128,93.156 206.128,85.541C206.128,79.619 207.086,74.049 209.004,68.831C210.922,63.614 213.672,59.073 217.253,55.21C220.835,51.346 225.206,48.286 230.368,46.03C235.529,43.773 241.352,42.645 247.839,42.645ZM248.262,57.621C242.17,57.621 237.404,59.341 233.963,62.782C230.523,66.223 228.323,71.102 227.364,77.419L266.622,77.419C266.622,74.711 266.255,72.159 265.522,69.762C264.788,67.365 263.66,65.264 262.137,63.459C260.615,61.654 258.697,60.23 256.384,59.186C254.072,58.143 251.364,57.621 248.262,57.621Z" style="fill:black;fill-rule:nonzero;"/>
            </g>
            <g transform="matrix(1.00387,0,0,1.00387,-13.5882,-73.5397)">
                <rect x="174.101" y="137.48" width="4.656" height="34.392" style="fill:black;fill-rule:nonzero;"/>
                <path d="M190.373,137.48C190.789,137.48 191.097,137.532 191.297,137.636C191.497,137.74 191.725,137.952 191.981,138.272L211.901,164.192C211.853,163.776 211.821,163.372 211.805,162.98C211.789,162.588 211.781,162.208 211.781,161.84L211.781,137.48L215.861,137.48L215.861,171.872L213.509,171.872C213.141,171.872 212.833,171.808 212.585,171.68C212.337,171.552 212.093,171.336 211.853,171.032L191.957,145.136C191.989,145.536 192.013,145.928 192.029,146.312C192.045,146.696 192.053,147.048 192.053,147.368L192.053,171.872L187.973,171.872L187.973,137.48L190.373,137.48Z" style="fill:black;fill-rule:nonzero;"/>
                <path d="M220.277,137.48L223.997,137.48C224.413,137.48 224.749,137.584 225.005,137.792C225.261,138 225.453,138.264 225.581,138.584L235.301,162.848C235.525,163.392 235.729,163.984 235.913,164.624C236.097,165.264 236.277,165.928 236.453,166.616C236.597,165.928 236.753,165.264 236.921,164.624C237.089,163.984 237.285,163.392 237.509,162.848L247.181,138.584C247.293,138.312 247.485,138.06 247.757,137.828C248.029,137.596 248.365,137.48 248.765,137.48L252.509,137.48L238.493,171.872L234.293,171.872L220.277,137.48Z" style="fill:black;fill-rule:nonzero;"/>
                <path d="M278.093,137.48L278.093,141.272L261.581,141.272L261.581,152.696L274.949,152.696L274.949,156.344L261.581,156.344L261.581,168.08L278.093,168.08L278.093,171.872L256.901,171.872L256.901,137.48L278.093,137.48Z" style="fill:black;fill-rule:nonzero;"/>
                <path d="M289.901,157.52L289.901,171.872L285.269,171.872L285.269,137.48L294.989,137.48C297.165,137.48 299.045,137.7 300.629,138.14C302.213,138.58 303.521,139.216 304.553,140.048C305.585,140.88 306.349,141.884 306.845,143.06C307.341,144.236 307.589,145.552 307.589,147.008C307.589,148.224 307.397,149.36 307.013,150.416C306.629,151.472 306.073,152.42 305.345,153.26C304.617,154.1 303.729,154.816 302.681,155.408C301.633,156 300.445,156.448 299.117,156.752C299.693,157.088 300.205,157.576 300.653,158.216L310.685,171.872L306.557,171.872C305.709,171.872 305.085,171.544 304.685,170.888L295.757,158.6C295.485,158.216 295.189,157.94 294.869,157.772C294.549,157.604 294.069,157.52 293.429,157.52L289.901,157.52ZM289.901,154.136L294.773,154.136C296.133,154.136 297.329,153.972 298.361,153.644C299.393,153.316 300.257,152.852 300.953,152.252C301.649,151.652 302.173,150.936 302.525,150.104C302.877,149.272 303.053,148.352 303.053,147.344C303.053,145.296 302.377,143.752 301.025,142.712C299.673,141.672 297.661,141.152 294.989,141.152L289.901,141.152L289.901,154.136Z" style="fill:black;fill-rule:nonzero;"/>
                <path d="M337.877,137.48L337.877,141.392L326.765,141.392L326.765,171.872L322.109,171.872L322.109,141.392L310.949,141.392L310.949,137.48L337.877,137.48Z" style="fill:black;fill-rule:nonzero;"/>
                <path d="M363.965,137.48L363.965,141.272L347.453,141.272L347.453,152.696L360.821,152.696L360.821,156.344L347.453,156.344L347.453,168.08L363.965,168.08L363.965,171.872L342.773,171.872L342.773,137.48L363.965,137.48Z" style="fill:black;fill-rule:nonzero;"/>
                <path d="M400.469,154.688C400.469,157.264 400.061,159.608 399.245,161.72C398.429,163.832 397.277,165.64 395.789,167.144C394.301,168.648 392.517,169.812 390.437,170.636C388.357,171.46 386.053,171.872 383.525,171.872L370.661,171.872L370.661,137.48L383.525,137.48C386.053,137.48 388.357,137.892 390.437,138.716C392.517,139.54 394.301,140.708 395.789,142.22C397.277,143.732 398.429,145.544 399.245,147.656C400.061,149.768 400.469,152.112 400.469,154.688ZM395.693,154.688C395.693,152.576 395.405,150.688 394.829,149.024C394.253,147.36 393.437,145.952 392.381,144.8C391.325,143.648 390.045,142.768 388.541,142.16C387.037,141.552 385.365,141.248 383.525,141.248L375.341,141.248L375.341,168.104L383.525,168.104C385.365,168.104 387.037,167.8 388.541,167.192C390.045,166.584 391.325,165.708 392.381,164.564C393.437,163.42 394.253,162.016 394.829,160.352C395.405,158.688 395.693,156.8 395.693,154.688Z" style="fill:black;fill-rule:nonzero;"/>
            </g>
            <g transform="matrix(1.00387,0,0,-1.00387,-13.5882,271.416)">
                <path d="M174.101,137.48L174.101,171.872L178.757,171.872L178.757,137.48L174.101,137.48ZM175.097,138.477L177.761,138.477L177.761,170.876L175.097,170.876L175.097,138.477Z" style="fill:black;"/>
                <path d="M188.969,138.477L190.369,138.477L190.433,138.477L190.49,138.479L190.543,138.481L190.593,138.484L190.638,138.488L190.68,138.492L190.717,138.497L190.75,138.502L190.778,138.507L190.801,138.512L190.82,138.517L190.834,138.521L190.841,138.523L190.849,138.528L190.861,138.536L190.876,138.548L190.894,138.563L190.916,138.581L190.939,138.603L190.966,138.628L190.994,138.657L191.025,138.688L191.057,138.723L191.091,138.761L191.127,138.803L191.164,138.847L191.199,138.89L213.284,167.627L212.874,163.932L212.859,163.786L212.846,163.642L212.834,163.499L212.823,163.357L212.814,163.217L212.806,163.078L212.8,162.94L212.79,162.658L212.783,162.381L212.778,162.108L212.777,161.838L212.777,138.477L214.865,138.477L214.865,170.876L213.514,170.876L213.463,170.876L213.419,170.874L213.377,170.872L213.338,170.869L213.301,170.865L213.267,170.86L213.234,170.855L213.205,170.849L213.177,170.843L213.152,170.836L213.128,170.83L213.107,170.823L213.088,170.816L213.071,170.809L213.056,170.802L213.041,170.795L213.026,170.787L213.009,170.777L212.99,170.765L212.97,170.751L212.949,170.736L212.926,170.718L212.901,170.698L212.876,170.676L212.849,170.652L212.821,170.626L212.793,170.597L212.763,170.565L212.732,170.531L212.7,170.495L212.668,170.456L212.636,170.417L190.712,141.882L190.986,145.505L191.004,145.791L191.02,146.074L191.033,146.354L191.044,146.627L191.051,146.887L191.055,147.134L191.057,147.372L191.057,170.876L188.969,170.876L188.969,138.477ZM187.973,137.48L187.973,171.872L192.053,171.872L192.053,147.368L192.051,147.122L192.047,146.864L192.039,146.594L192.029,146.312L192.015,146.023L191.999,145.73L191.979,145.435L191.957,145.136L211.853,171.032L211.898,171.088L211.943,171.142L211.988,171.194L212.033,171.244L212.079,171.292L212.124,171.337L212.17,171.381L212.216,171.422L212.262,171.462L212.307,171.499L212.353,171.535L212.399,171.568L212.446,171.599L212.492,171.628L212.538,171.655L212.585,171.68L212.632,171.704L212.681,171.725L212.731,171.746L212.782,171.764L212.835,171.782L212.889,171.797L212.945,171.812L213.002,171.824L213.06,171.836L213.12,171.845L213.181,171.854L213.244,171.86L213.308,171.866L213.374,171.869L213.44,171.872L213.509,171.872L215.861,171.872L215.861,137.48L211.781,137.48L211.781,161.84L211.782,162.119L211.787,162.401L211.794,162.689L211.805,162.98L211.811,163.128L211.82,163.277L211.829,163.427L211.841,163.577L211.853,163.73L211.868,163.883L211.883,164.037L211.901,164.192L191.981,138.272L191.933,138.214L191.886,138.158L191.84,138.104L191.794,138.053L191.749,138.004L191.705,137.958L191.661,137.914L191.618,137.873L191.575,137.835L191.534,137.799L191.492,137.766L191.452,137.735L191.412,137.706L191.373,137.681L191.335,137.657L191.297,137.636L191.258,137.618L191.217,137.6L191.173,137.583L191.126,137.568L191.078,137.554L191.026,137.541L190.972,137.53L190.916,137.519L190.857,137.51L190.795,137.502L190.731,137.496L190.664,137.49L190.595,137.486L190.524,137.483L190.449,137.481L190.373,137.48L187.973,137.48Z" style="fill:black;"/>
                <path d="M220.277,137.48L234.293,171.872L238.493,171.872L252.509,137.48L248.765,137.48L248.69,137.482L248.618,137.486L248.546,137.493L248.477,137.502L248.408,137.514L248.342,137.529L248.309,137.538L248.276,137.547L248.244,137.557L248.213,137.567L248.181,137.579L248.15,137.591L248.12,137.603L248.09,137.616L248.06,137.63L248.03,137.645L248.001,137.66L247.973,137.676L247.944,137.693L247.916,137.71L247.889,137.728L247.862,137.747L247.835,137.766L247.808,137.786L247.782,137.807L247.757,137.828L247.707,137.872L247.658,137.916L247.612,137.961L247.568,138.006L247.525,138.052L247.484,138.098L247.446,138.144L247.409,138.191L247.374,138.239L247.34,138.287L247.309,138.335L247.28,138.384L247.252,138.434L247.226,138.483L247.203,138.534L247.181,138.584L237.509,162.848L237.467,162.951L237.426,163.055L237.386,163.16L237.346,163.265L237.307,163.373L237.269,163.481L237.231,163.59L237.194,163.7L237.157,163.812L237.122,163.925L237.086,164.039L237.052,164.153L237.018,164.27L236.985,164.387L236.953,164.505L236.921,164.624L236.858,164.866L236.797,165.109L236.737,165.355L236.678,165.602L236.62,165.853L236.563,166.105L236.507,166.36L236.453,166.616L236.387,166.36L236.32,166.105L236.253,165.853L236.186,165.602L236.118,165.355L236.05,165.109L235.982,164.866L235.913,164.624L235.878,164.505L235.843,164.387L235.807,164.27L235.771,164.153L235.734,164.039L235.697,163.925L235.66,163.812L235.622,163.7L235.583,163.59L235.544,163.481L235.505,163.373L235.465,163.265L235.425,163.16L235.384,163.055L235.343,162.951L235.301,162.848L225.581,138.584L225.556,138.525L225.53,138.467L225.502,138.41L225.473,138.355L225.442,138.301L225.41,138.248L225.376,138.197L225.341,138.146L225.304,138.098L225.266,138.05L225.226,138.004L225.185,137.959L225.142,137.915L225.098,137.873L225.052,137.832L225.005,137.792L224.981,137.773L224.956,137.755L224.931,137.737L224.905,137.719L224.879,137.703L224.852,137.686L224.825,137.671L224.798,137.656L224.77,137.642L224.741,137.628L224.683,137.602L224.623,137.579L224.561,137.558L224.497,137.54L224.431,137.524L224.363,137.511L224.294,137.5L224.222,137.491L224.149,137.485L224.074,137.482L223.997,137.48L220.277,137.48ZM221.758,138.477L223.989,138.477L224.042,138.477L224.084,138.48L224.122,138.483L224.157,138.487L224.189,138.492L224.218,138.498L224.243,138.504L224.266,138.51L224.286,138.517L224.304,138.524L224.327,138.534L224.34,138.541L224.351,138.547L224.362,138.555L224.372,138.562L224.375,138.565L224.399,138.585L224.421,138.605L224.442,138.624L224.462,138.645L224.481,138.666L224.5,138.687L224.518,138.71L224.535,138.733L224.552,138.756L224.568,138.781L224.584,138.807L224.599,138.834L224.614,138.862L224.628,138.891L224.642,138.922L224.659,138.961L234.377,163.222L234.418,163.323L234.457,163.42L234.495,163.518L234.533,163.617L234.57,163.717L234.607,163.818L234.644,163.921L234.68,164.025L234.716,164.13L234.751,164.236L234.786,164.344L234.821,164.453L234.855,164.563L234.889,164.674L234.922,164.786L234.956,164.9L235.023,165.137L235.091,165.377L235.158,165.619L235.224,165.863L235.291,166.11L235.357,166.359L235.422,166.61L236.451,170.602L236.625,170.598L237.481,166.57L237.535,166.321L237.591,166.074L237.647,165.83L237.705,165.589L237.764,165.349L237.823,165.112L237.884,164.878L237.914,164.765L237.945,164.654L237.976,164.544L238.007,164.436L238.04,164.328L238.072,164.222L238.106,164.117L238.139,164.014L238.174,163.911L238.209,163.81L238.244,163.71L238.28,163.611L238.317,163.513L238.354,163.417L238.392,163.322L238.433,163.22L248.101,138.966L248.11,138.944L248.12,138.925L248.13,138.905L248.141,138.884L248.154,138.863L248.169,138.841L248.184,138.818L248.201,138.795L248.22,138.771L248.241,138.747L248.263,138.721L248.287,138.696L248.313,138.669L248.341,138.642L248.371,138.615L248.403,138.586L248.411,138.58L248.42,138.573L248.428,138.567L248.436,138.561L248.444,138.556L248.452,138.55L248.46,138.546L248.468,138.541L248.476,138.536L248.484,138.532L248.492,138.528L248.501,138.524L248.51,138.52L248.519,138.516L248.528,138.513L248.538,138.509L248.548,138.506L248.559,138.503L248.569,138.5L248.575,138.498L248.605,138.491L248.632,138.486L248.661,138.482L248.693,138.479L248.728,138.477L248.774,138.477L251.027,138.477L237.823,170.876L234.962,170.876L221.758,138.477Z" style="fill:black;"/>
                <path d="M256.901,137.48L256.901,171.872L278.093,171.872L278.093,168.08L261.581,168.08L261.581,156.344L274.949,156.344L274.949,152.696L261.581,152.696L261.581,141.272L278.093,141.272L278.093,137.48L256.901,137.48ZM257.897,138.477L277.097,138.477L277.097,140.276L260.585,140.276L260.585,153.693L273.953,153.693L273.953,155.348L260.585,155.348L260.585,169.077L277.097,169.077L277.097,170.876L257.897,170.876L257.897,138.477Z" style="fill:black;"/>
                <path d="M288.905,140.156L288.905,155.133L294.775,155.133L294.907,155.132L295.041,155.131L295.174,155.128L295.306,155.124L295.437,155.12L295.568,155.114L295.697,155.108L295.826,155.1L295.954,155.091L296.081,155.081L296.207,155.07L296.332,155.059L296.457,155.046L296.58,155.032L296.703,155.017L296.825,155L296.946,154.983L297.067,154.965L297.186,154.946L297.305,154.925L297.422,154.904L297.539,154.881L297.656,154.857L297.771,154.832L297.885,154.807L297.999,154.78L298.112,154.751L298.223,154.722L298.335,154.692L298.445,154.66L298.554,154.628L298.662,154.594L298.769,154.559L298.874,154.524L298.978,154.488L299.082,154.451L299.185,154.412L299.286,154.373L299.387,154.333L299.487,154.292L299.586,154.25L299.684,154.207L299.782,154.163L299.878,154.118L299.973,154.072L300.068,154.025L300.161,153.977L300.254,153.928L300.346,153.878L300.436,153.827L300.526,153.775L300.615,153.722L300.703,153.668L300.79,153.613L300.876,153.557L300.961,153.5L301.044,153.442L301.127,153.383L301.209,153.323L301.29,153.262L301.37,153.199L301.449,153.136L301.526,153.072L301.603,153.007L301.678,152.941L301.752,152.875L301.825,152.808L301.897,152.74L301.967,152.67L302.037,152.6L302.106,152.53L302.173,152.458L302.239,152.385L302.304,152.312L302.369,152.238L302.432,152.163L302.493,152.087L302.554,152.01L302.613,151.932L302.672,151.854L302.729,151.775L302.785,151.694L302.84,151.614L302.893,151.532L302.945,151.449L302.997,151.366L303.047,151.282L303.095,151.197L303.143,151.112L303.189,151.025L303.235,150.938L303.279,150.851L303.321,150.762L303.363,150.673L303.403,150.583L303.442,150.493L303.48,150.402L303.516,150.311L303.552,150.219L303.586,150.126L303.618,150.033L303.65,149.94L303.68,149.846L303.71,149.752L303.738,149.656L303.764,149.561L303.79,149.465L303.814,149.369L303.837,149.272L303.859,149.174L303.88,149.076L303.899,148.978L303.917,148.879L303.934,148.78L303.95,148.68L303.965,148.58L303.978,148.479L303.991,148.378L304.002,148.276L304.012,148.175L304.021,148.072L304.028,147.97L304.034,147.866L304.04,147.763L304.044,147.659L304.047,147.554L304.048,147.45L304.049,147.345L304.048,147.239L304.047,147.133L304.044,147.028L304.04,146.924L304.035,146.82L304.029,146.717L304.022,146.615L304.013,146.513L304.004,146.412L303.993,146.311L303.981,146.211L303.968,146.111L303.954,146.012L303.939,145.914L303.923,145.816L303.905,145.719L303.886,145.622L303.866,145.526L303.845,145.431L303.823,145.336L303.799,145.242L303.774,145.149L303.748,145.056L303.721,144.964L303.692,144.872L303.663,144.781L303.632,144.691L303.599,144.602L303.566,144.513L303.531,144.425L303.495,144.338L303.458,144.251L303.42,144.165L303.38,144.08L303.339,143.996L303.297,143.912L303.254,143.829L303.209,143.747L303.163,143.666L303.116,143.585L303.068,143.505L303.018,143.427L302.968,143.349L302.916,143.272L302.862,143.195L302.808,143.12L302.752,143.046L302.696,142.972L302.638,142.899L302.578,142.827L302.518,142.757L302.457,142.687L302.394,142.618L302.33,142.55L302.265,142.483L302.199,142.417L302.132,142.352L302.064,142.287L301.995,142.224L301.924,142.162L301.853,142.101L301.78,142.04L301.707,141.981L301.632,141.923L301.557,141.866L301.48,141.809L301.402,141.754L301.324,141.7L301.244,141.646L301.163,141.594L301.082,141.543L300.999,141.493L300.916,141.443L300.831,141.395L300.746,141.348L300.66,141.302L300.573,141.256L300.485,141.212L300.396,141.169L300.306,141.126L300.215,141.085L300.124,141.044L300.031,141.005L299.938,140.967L299.844,140.929L299.749,140.892L299.653,140.857L299.556,140.822L299.458,140.788L299.36,140.756L299.261,140.724L299.16,140.693L299.059,140.663L298.957,140.634L298.855,140.605L298.751,140.578L298.647,140.552L298.541,140.526L298.435,140.501L298.328,140.478L298.22,140.455L298.112,140.433L298.002,140.412L297.892,140.391L297.781,140.372L297.669,140.353L297.556,140.336L297.442,140.319L297.328,140.303L297.212,140.288L297.096,140.273L296.979,140.26L296.861,140.247L296.742,140.235L296.623,140.225L296.502,140.214L296.381,140.205L296.258,140.197L296.135,140.189L296.011,140.182L295.887,140.176L295.761,140.171L295.634,140.166L295.507,140.163L295.379,140.16L295.25,140.158L295.12,140.157L294.99,140.156L288.905,140.156ZM289.901,141.152L294.989,141.152L295.114,141.153L295.237,141.154L295.36,141.156L295.482,141.159L295.603,141.162L295.723,141.166L295.842,141.171L295.96,141.177L296.077,141.183L296.193,141.191L296.308,141.199L296.422,141.207L296.535,141.217L296.647,141.227L296.759,141.238L296.869,141.25L296.978,141.263L297.087,141.276L297.194,141.29L297.3,141.305L297.406,141.32L297.51,141.337L297.614,141.354L297.716,141.372L297.818,141.391L297.918,141.41L298.018,141.43L298.117,141.451L298.214,141.473L298.311,141.495L298.407,141.518L298.502,141.542L298.596,141.567L298.688,141.593L298.78,141.619L298.871,141.646L298.961,141.674L299.05,141.702L299.138,141.732L299.225,141.762L299.311,141.793L299.397,141.824L299.481,141.857L299.564,141.89L299.646,141.924L299.727,141.958L299.808,141.994L299.887,142.03L299.965,142.067L300.043,142.105L300.119,142.143L300.195,142.182L300.269,142.222L300.343,142.263L300.415,142.305L300.487,142.347L300.557,142.39L300.627,142.434L300.696,142.478L300.764,142.524L300.83,142.57L300.896,142.617L300.961,142.664L301.025,142.712L301.088,142.762L301.15,142.811L301.21,142.862L301.27,142.913L301.329,142.965L301.387,143.018L301.444,143.072L301.5,143.126L301.555,143.181L301.609,143.237L301.662,143.293L301.714,143.351L301.765,143.409L301.815,143.467L301.864,143.527L301.912,143.587L301.959,143.648L302.005,143.71L302.05,143.772L302.094,143.835L302.137,143.899L302.179,143.964L302.22,144.029L302.261,144.095L302.3,144.162L302.338,144.23L302.375,144.298L302.411,144.367L302.446,144.437L302.48,144.507L302.514,144.578L302.546,144.65L302.577,144.723L302.607,144.797L302.636,144.871L302.665,144.946L302.692,145.022L302.718,145.098L302.743,145.175L302.768,145.253L302.791,145.332L302.813,145.411L302.834,145.491L302.855,145.572L302.874,145.654L302.892,145.736L302.91,145.819L302.926,145.903L302.941,145.988L302.956,146.073L302.969,146.159L302.981,146.246L302.993,146.333L303.003,146.421L303.013,146.51L303.021,146.6L303.028,146.691L303.035,146.782L303.04,146.874L303.045,146.966L303.048,147.06L303.051,147.154L303.052,147.249L303.053,147.344L303.052,147.439L303.051,147.532L303.048,147.626L303.044,147.718L303.04,147.811L303.034,147.902L303.027,147.993L303.02,148.084L303.011,148.174L303.001,148.264L302.99,148.353L302.978,148.441L302.966,148.529L302.952,148.617L302.937,148.704L302.921,148.79L302.904,148.876L302.886,148.962L302.867,149.047L302.846,149.131L302.825,149.215L302.803,149.299L302.78,149.382L302.756,149.464L302.73,149.546L302.704,149.627L302.677,149.708L302.648,149.788L302.619,149.868L302.589,149.947L302.557,150.026L302.525,150.104L302.491,150.182L302.457,150.259L302.421,150.335L302.385,150.411L302.347,150.486L302.309,150.56L302.269,150.634L302.228,150.707L302.187,150.779L302.144,150.85L302.101,150.921L302.056,150.992L302.011,151.061L301.964,151.13L301.916,151.198L301.868,151.265L301.818,151.332L301.767,151.398L301.716,151.464L301.663,151.529L301.61,151.593L301.555,151.656L301.499,151.719L301.442,151.781L301.385,151.842L301.326,151.903L301.266,151.963L301.206,152.022L301.144,152.081L301.081,152.139L301.017,152.196L300.953,152.252L300.887,152.308L300.82,152.363L300.753,152.418L300.684,152.471L300.614,152.524L300.544,152.576L300.472,152.627L300.399,152.677L300.326,152.726L300.251,152.775L300.175,152.823L300.099,152.87L300.021,152.916L299.943,152.962L299.863,153.007L299.783,153.05L299.701,153.094L299.619,153.136L299.535,153.177L299.451,153.218L299.365,153.258L299.279,153.297L299.192,153.335L299.103,153.373L299.014,153.41L298.924,153.446L298.832,153.481L298.74,153.515L298.647,153.549L298.552,153.581L298.457,153.613L298.361,153.644L298.264,153.675L298.165,153.704L298.066,153.732L297.966,153.76L297.865,153.786L297.763,153.812L297.66,153.836L297.556,153.86L297.451,153.882L297.345,153.904L297.238,153.925L297.131,153.944L297.022,153.963L296.912,153.981L296.801,153.998L296.69,154.013L296.577,154.028L296.464,154.042L296.349,154.055L296.234,154.067L296.117,154.078L296,154.088L295.881,154.098L295.762,154.106L295.642,154.113L295.52,154.119L295.398,154.124L295.275,154.129L295.151,154.132L295.026,154.135L294.9,154.136L294.773,154.136L289.901,154.136L289.901,141.152ZM286.265,138.477L294.987,138.477L295.186,138.477L295.38,138.479L295.574,138.482L295.765,138.487L295.954,138.492L296.142,138.499L296.327,138.507L296.511,138.516L296.693,138.527L296.873,138.539L297.052,138.552L297.228,138.566L297.403,138.581L297.575,138.598L297.746,138.616L297.915,138.635L298.082,138.655L298.247,138.677L298.41,138.699L298.572,138.723L298.731,138.748L298.889,138.774L299.045,138.802L299.199,138.83L299.351,138.86L299.501,138.891L299.649,138.923L299.796,138.956L299.94,138.99L300.083,139.026L300.223,139.063L300.362,139.1L300.5,139.139L300.636,139.179L300.771,139.221L300.904,139.263L301.035,139.306L301.164,139.35L301.292,139.395L301.418,139.441L301.542,139.488L301.664,139.536L301.785,139.585L301.904,139.635L302.021,139.685L302.136,139.737L302.25,139.79L302.362,139.843L302.472,139.898L302.581,139.953L302.688,140.01L302.793,140.067L302.897,140.125L302.999,140.184L303.099,140.244L303.198,140.305L303.294,140.367L303.39,140.43L303.483,140.493L303.575,140.557L303.666,140.623L303.755,140.689L303.842,140.756L303.928,140.824L304.012,140.893L304.096,140.964L304.178,141.035L304.258,141.107L304.337,141.179L304.414,141.252L304.49,141.327L304.564,141.401L304.637,141.477L304.709,141.553L304.779,141.631L304.847,141.709L304.914,141.787L304.98,141.867L305.044,141.948L305.107,142.029L305.168,142.111L305.228,142.194L305.287,142.277L305.344,142.362L305.4,142.448L305.455,142.534L305.508,142.621L305.56,142.709L305.611,142.798L305.66,142.888L305.708,142.979L305.754,143.071L305.799,143.164L305.843,143.257L305.886,143.352L305.927,143.448L305.967,143.546L306.007,143.644L306.045,143.744L306.081,143.844L306.117,143.945L306.151,144.047L306.184,144.15L306.216,144.254L306.246,144.358L306.275,144.464L306.303,144.57L306.33,144.677L306.355,144.785L306.379,144.894L306.402,145.003L306.424,145.114L306.444,145.226L306.463,145.338L306.481,145.451L306.497,145.565L306.512,145.681L306.526,145.797L306.539,145.914L306.55,146.031L306.56,146.15L306.569,146.27L306.576,146.391L306.582,146.513L306.587,146.635L306.59,146.759L306.592,146.883L306.593,147.009L306.592,147.112L306.591,147.216L306.588,147.319L306.584,147.421L306.58,147.522L306.574,147.624L306.568,147.724L306.56,147.824L306.551,147.924L306.542,148.023L306.531,148.122L306.519,148.22L306.507,148.317L306.493,148.414L306.478,148.511L306.463,148.606L306.446,148.702L306.428,148.797L306.409,148.891L306.39,148.985L306.369,149.079L306.348,149.172L306.325,149.264L306.301,149.356L306.277,149.448L306.251,149.539L306.224,149.63L306.197,149.72L306.168,149.809L306.139,149.899L306.108,149.988L306.076,150.076L306.044,150.164L306.01,150.252L305.976,150.339L305.941,150.426L305.904,150.511L305.867,150.597L305.829,150.681L305.791,150.765L305.751,150.849L305.71,150.931L305.669,151.013L305.627,151.095L305.583,151.176L305.539,151.256L305.494,151.336L305.448,151.416L305.402,151.494L305.354,151.572L305.306,151.65L305.256,151.727L305.206,151.803L305.155,151.879L305.102,151.954L305.049,152.029L304.995,152.103L304.94,152.177L304.885,152.25L304.828,152.323L304.77,152.395L304.712,152.467L304.652,152.538L304.592,152.608L304.531,152.678L304.469,152.747L304.406,152.816L304.342,152.884L304.277,152.951L304.212,153.018L304.145,153.084L304.078,153.15L304.01,153.215L303.941,153.279L303.871,153.343L303.8,153.406L303.728,153.468L303.655,153.53L303.582,153.591L303.507,153.652L303.432,153.712L303.356,153.772L303.279,153.83L303.201,153.889L303.122,153.946L303.042,154.003L302.961,154.06L302.879,154.116L302.796,154.171L302.713,154.226L302.628,154.28L302.543,154.333L302.456,154.386L302.369,154.438L302.28,154.49L302.191,154.541L302.101,154.591L302.01,154.641L301.919,154.69L301.826,154.738L301.733,154.785L301.639,154.831L301.544,154.877L301.448,154.922L301.352,154.967L301.254,155.01L301.156,155.053L301.057,155.095L300.957,155.137L300.856,155.177L300.755,155.217L300.652,155.256L300.549,155.295L300.445,155.333L300.34,155.37L300.234,155.406L300.127,155.441L300.019,155.476L299.911,155.51L299.801,155.543L299.691,155.576L299.58,155.607L299.468,155.638L299.355,155.668L299.241,155.698L299.126,155.726L299.011,155.754L296.478,156.345L298.656,157.637L298.696,157.662L298.736,157.688L298.776,157.714L298.816,157.741L298.856,157.769L298.896,157.798L298.935,157.827L298.975,157.857L299.014,157.888L299.053,157.92L299.092,157.953L299.13,157.986L299.169,158.021L299.207,158.056L299.245,158.092L299.284,158.128L299.322,158.166L299.359,158.205L299.397,158.244L299.435,158.284L299.472,158.326L299.509,158.368L299.546,158.411L299.583,158.455L299.62,158.499L299.656,158.545L299.693,158.592L299.729,158.639L299.765,158.688L299.801,158.737L299.845,158.799L308.717,170.876L306.563,170.876L306.502,170.876L306.45,170.874L306.4,170.87L306.352,170.866L306.306,170.861L306.262,170.854L306.22,170.847L306.18,170.839L306.141,170.829L306.104,170.819L306.07,170.809L306.036,170.797L306.004,170.785L305.974,170.772L305.944,170.759L305.916,170.745L305.889,170.73L305.863,170.714L305.837,170.698L305.812,170.68L305.788,170.662L305.764,170.643L305.74,170.622L305.717,170.601L305.694,170.577L305.671,170.553L305.648,170.527L305.625,170.499L305.603,170.47L305.58,170.438L305.558,170.405L305.51,170.33L296.563,158.015L296.505,157.936L296.44,157.849L296.372,157.765L296.303,157.683L296.233,157.603L296.16,157.525L296.086,157.45L296.01,157.377L295.932,157.306L295.852,157.238L295.77,157.173L295.687,157.11L295.601,157.051L295.513,156.994L295.423,156.941L295.334,156.892L295.279,156.864L295.226,156.838L295.172,156.814L295.118,156.791L295.064,156.77L295.009,156.749L294.954,156.73L294.894,156.711L294.786,156.679L294.673,156.65L294.558,156.624L294.441,156.602L294.322,156.583L294.201,156.567L294.078,156.554L293.953,156.543L293.826,156.535L293.696,156.529L293.564,156.525L293.433,156.524L288.905,156.524L288.905,170.876L286.265,170.876L286.265,138.477ZM285.269,137.48L285.269,171.872L289.901,171.872L289.901,157.52L293.429,157.52L293.547,157.521L293.661,157.524L293.772,157.529L293.879,157.536L293.982,157.545L294.081,157.556L294.177,157.569L294.269,157.583L294.357,157.6L294.441,157.619L294.522,157.64L294.599,157.662L294.636,157.674L294.672,157.687L294.707,157.7L294.741,157.713L294.775,157.727L294.807,157.742L294.838,157.757L294.869,157.772L294.928,157.805L294.988,157.841L295.046,157.878L295.104,157.919L295.162,157.962L295.219,158.007L295.275,158.055L295.331,158.105L295.386,158.158L295.441,158.214L295.495,158.272L295.548,158.333L295.601,158.396L295.654,158.462L295.705,158.53L295.757,158.6L304.685,170.888L304.723,170.949L304.762,171.008L304.803,171.064L304.845,171.119L304.889,171.172L304.933,171.223L304.979,171.272L305.027,171.319L305.075,171.364L305.125,171.407L305.177,171.449L305.229,171.488L305.283,171.526L305.338,171.561L305.395,171.595L305.453,171.626L305.512,171.656L305.572,171.684L305.634,171.71L305.697,171.734L305.762,171.756L305.827,171.776L305.894,171.795L305.963,171.811L306.032,171.825L306.103,171.838L306.176,171.848L306.249,171.857L306.324,171.864L306.4,171.869L306.478,171.872L306.557,171.872L310.685,171.872L300.653,158.216L300.611,158.157L300.568,158.098L300.525,158.04L300.482,157.984L300.438,157.928L300.394,157.873L300.35,157.818L300.305,157.765L300.26,157.713L300.214,157.661L300.168,157.61L300.122,157.561L300.075,157.512L300.028,157.464L299.981,157.417L299.933,157.37L299.885,157.325L299.836,157.281L299.787,157.237L299.738,157.195L299.688,157.153L299.638,157.112L299.588,157.072L299.537,157.033L299.486,156.995L299.434,156.958L299.382,156.921L299.33,156.886L299.277,156.851L299.224,156.817L299.171,156.784L299.117,156.752L299.241,156.724L299.364,156.694L299.487,156.663L299.608,156.632L299.729,156.599L299.849,156.566L299.968,156.532L300.086,156.497L300.204,156.462L300.321,156.425L300.437,156.388L300.552,156.35L300.666,156.311L300.779,156.271L300.892,156.23L301.004,156.188L301.115,156.146L301.225,156.103L301.334,156.059L301.443,156.014L301.55,155.968L301.657,155.921L301.763,155.874L301.868,155.825L301.973,155.776L302.076,155.726L302.179,155.675L302.281,155.624L302.382,155.571L302.483,155.518L302.582,155.464L302.681,155.408L302.779,155.353L302.875,155.296L302.971,155.239L303.066,155.181L303.16,155.122L303.253,155.062L303.346,155.002L303.437,154.941L303.527,154.88L303.616,154.817L303.705,154.754L303.792,154.69L303.879,154.626L303.964,154.56L304.049,154.494L304.133,154.427L304.216,154.36L304.297,154.292L304.378,154.223L304.458,154.153L304.537,154.083L304.615,154.012L304.693,153.94L304.769,153.867L304.844,153.794L304.918,153.72L304.992,153.645L305.064,153.57L305.136,153.493L305.206,153.417L305.276,153.339L305.345,153.26L305.412,153.181L305.479,153.102L305.545,153.021L305.61,152.94L305.673,152.859L305.736,152.777L305.798,152.694L305.858,152.61L305.918,152.526L305.977,152.441L306.035,152.356L306.091,152.27L306.147,152.183L306.201,152.096L306.255,152.008L306.308,151.919L306.359,151.83L306.41,151.74L306.46,151.65L306.508,151.559L306.556,151.467L306.602,151.375L306.648,151.282L306.692,151.188L306.736,151.094L306.779,150.999L306.82,150.904L306.861,150.807L306.9,150.711L306.939,150.613L306.976,150.515L307.013,150.416L307.048,150.317L307.082,150.218L307.116,150.117L307.148,150.017L307.179,149.916L307.208,149.814L307.237,149.712L307.265,149.609L307.291,149.506L307.316,149.403L307.341,149.299L307.364,149.195L307.386,149.09L307.406,148.985L307.426,148.879L307.445,148.772L307.462,148.666L307.478,148.559L307.494,148.451L307.508,148.343L307.521,148.234L307.532,148.125L307.543,148.015L307.553,147.905L307.561,147.795L307.568,147.684L307.575,147.573L307.58,147.461L307.584,147.348L307.586,147.236L307.588,147.122L307.589,147.008L307.588,146.872L307.586,146.737L307.582,146.603L307.577,146.469L307.571,146.336L307.563,146.204L307.553,146.073L307.542,145.943L307.53,145.813L307.516,145.684L307.501,145.557L307.484,145.43L307.466,145.303L307.446,145.178L307.425,145.053L307.403,144.929L307.379,144.807L307.353,144.684L307.326,144.563L307.298,144.443L307.268,144.323L307.237,144.204L307.204,144.086L307.17,143.969L307.135,143.852L307.098,143.737L307.059,143.622L307.019,143.508L306.978,143.395L306.935,143.283L306.891,143.171L306.845,143.06L306.797,142.951L306.749,142.842L306.698,142.734L306.646,142.628L306.593,142.522L306.537,142.417L306.481,142.313L306.422,142.211L306.363,142.109L306.301,142.008L306.238,141.909L306.174,141.81L306.108,141.712L306.04,141.616L305.971,141.52L305.9,141.425L305.827,141.332L305.753,141.239L305.678,141.148L305.601,141.057L305.522,140.967L305.442,140.879L305.36,140.791L305.276,140.705L305.192,140.619L305.105,140.535L305.017,140.451L304.927,140.369L304.836,140.287L304.743,140.206L304.649,140.127L304.553,140.048L304.455,139.971L304.356,139.895L304.255,139.82L304.153,139.746L304.049,139.673L303.943,139.601L303.836,139.531L303.727,139.461L303.616,139.393L303.504,139.326L303.391,139.26L303.275,139.195L303.158,139.132L303.04,139.069L302.92,139.008L302.798,138.947L302.674,138.888L302.549,138.831L302.423,138.774L302.294,138.718L302.164,138.664L302.033,138.61L301.9,138.558L301.765,138.507L301.629,138.457L301.491,138.409L301.351,138.361L301.21,138.315L301.067,138.269L300.923,138.225L300.776,138.182L300.629,138.14L300.479,138.1L300.328,138.061L300.175,138.023L300.021,137.986L299.865,137.95L299.707,137.916L299.547,137.883L299.385,137.852L299.222,137.821L299.057,137.792L298.89,137.765L298.722,137.738L298.552,137.713L298.38,137.689L298.206,137.667L298.031,137.645L297.854,137.626L297.675,137.607L297.494,137.589L297.312,137.573L297.128,137.558L296.942,137.545L296.754,137.533L296.565,137.522L296.374,137.512L296.182,137.504L295.987,137.497L295.791,137.491L295.593,137.486L295.393,137.483L295.192,137.481L294.989,137.48L285.269,137.48Z" style="fill:black;"/>
                <path d="M310.949,137.48L310.949,141.392L322.109,141.392L322.109,171.872L326.765,171.872L326.765,141.392L337.877,141.392L337.877,137.48L310.949,137.48ZM311.945,138.477L336.881,138.477L336.881,140.396L325.769,140.396L325.769,170.876L323.105,170.876L323.105,140.396L311.945,140.396L311.945,138.477Z" style="fill:black;"/>
                <path d="M342.773,137.48L342.773,171.872L363.965,171.872L363.965,168.08L347.453,168.08L347.453,156.344L360.821,156.344L360.821,152.696L347.453,152.696L347.453,141.272L363.965,141.272L363.965,137.48L342.773,137.48ZM343.769,138.477L362.969,138.477L362.969,140.276L346.457,140.276L346.457,153.693L359.825,153.693L359.825,155.348L346.457,155.348L346.457,169.077L362.969,169.077L362.969,170.876L343.769,170.876L343.769,138.477Z" style="fill:black;"/>
                <path d="M370.661,137.48L370.661,171.872L383.525,171.872L383.761,171.871L383.996,171.868L384.23,171.862L384.462,171.853L384.693,171.842L384.923,171.829L385.152,171.813L385.379,171.795L385.605,171.775L385.829,171.752L386.052,171.726L386.274,171.699L386.495,171.668L386.714,171.636L386.932,171.601L387.149,171.563L387.364,171.524L387.578,171.481L387.791,171.437L388.002,171.39L388.212,171.34L388.421,171.288L388.629,171.234L388.835,171.177L389.04,171.118L389.243,171.057L389.445,170.993L389.646,170.926L389.846,170.857L390.044,170.786L390.241,170.713L390.437,170.636L390.631,170.558L390.823,170.478L391.014,170.396L391.203,170.312L391.39,170.225L391.576,170.137L391.759,170.047L391.941,169.955L392.121,169.861L392.3,169.764L392.477,169.666L392.652,169.566L392.825,169.464L392.997,169.36L393.167,169.254L393.335,169.145L393.501,169.035L393.666,168.923L393.829,168.809L393.99,168.693L394.149,168.575L394.307,168.455L394.463,168.333L394.617,168.209L394.77,168.083L394.921,167.955L395.07,167.825L395.217,167.693L395.362,167.559L395.506,167.422L395.648,167.284L395.789,167.144L395.927,167.003L396.064,166.859L396.198,166.713L396.331,166.566L396.462,166.417L396.59,166.266L396.717,166.114L396.842,165.959L396.965,165.803L397.085,165.645L397.204,165.486L397.321,165.324L397.436,165.161L397.549,164.996L397.66,164.829L397.769,164.66L397.876,164.49L397.981,164.318L398.084,164.144L398.185,163.968L398.284,163.791L398.381,163.611L398.477,163.43L398.57,163.247L398.661,163.063L398.75,162.876L398.838,162.688L398.923,162.498L399.006,162.306L399.088,162.113L399.167,161.918L399.245,161.72L399.32,161.522L399.393,161.322L399.463,161.12L399.532,160.918L399.597,160.713L399.661,160.508L399.722,160.301L399.78,160.093L399.836,159.883L399.89,159.673L399.942,159.46L399.991,159.247L400.037,159.032L400.081,158.815L400.123,158.598L400.163,158.378L400.2,158.158L400.234,157.936L400.267,157.713L400.297,157.489L400.324,157.263L400.349,157.036L400.372,156.807L400.392,156.577L400.41,156.346L400.426,156.113L400.439,155.879L400.45,155.644L400.458,155.407L400.464,155.169L400.468,154.929L400.469,154.688L400.468,154.448L400.464,154.208L400.458,153.97L400.45,153.733L400.439,153.498L400.426,153.264L400.41,153.031L400.392,152.8L400.372,152.57L400.349,152.341L400.324,152.114L400.297,151.888L400.267,151.664L400.234,151.441L400.2,151.219L400.163,150.998L400.123,150.779L400.081,150.562L400.037,150.345L399.991,150.13L399.942,149.917L399.89,149.704L399.836,149.494L399.78,149.284L399.722,149.076L399.661,148.869L399.597,148.663L399.532,148.459L399.463,148.257L399.393,148.055L399.32,147.855L399.245,147.656L399.167,147.459L399.088,147.264L399.006,147.07L398.923,146.879L398.838,146.688L398.75,146.5L398.661,146.314L398.57,146.129L398.477,145.946L398.381,145.764L398.284,145.585L398.185,145.407L398.084,145.231L397.981,145.057L397.876,144.884L397.769,144.713L397.66,144.544L397.549,144.377L397.436,144.212L397.321,144.048L397.204,143.886L397.085,143.726L396.965,143.567L396.842,143.411L396.717,143.256L396.59,143.103L396.462,142.951L396.331,142.802L396.198,142.654L396.064,142.507L395.927,142.363L395.789,142.22L395.648,142.08L395.506,141.941L395.362,141.804L395.217,141.67L395.07,141.537L394.921,141.406L394.77,141.278L394.617,141.151L394.463,141.026L394.307,140.904L394.149,140.783L393.99,140.665L393.829,140.548L393.666,140.434L393.501,140.321L393.335,140.21L393.167,140.102L392.997,139.996L392.825,139.891L392.652,139.789L392.477,139.688L392.3,139.59L392.121,139.493L391.941,139.399L391.759,139.307L391.576,139.216L391.39,139.128L391.203,139.042L391.014,138.957L390.823,138.875L390.631,138.795L390.437,138.716L390.241,138.64L390.044,138.567L389.846,138.496L389.646,138.427L389.445,138.36L389.243,138.296L389.04,138.235L388.835,138.176L388.629,138.119L388.421,138.065L388.212,138.013L388.002,137.963L387.791,137.916L387.578,137.872L387.364,137.829L387.149,137.789L386.932,137.752L386.714,137.717L386.495,137.684L386.274,137.654L386.052,137.627L385.829,137.601L385.605,137.578L385.379,137.558L385.152,137.54L384.923,137.524L384.693,137.511L384.462,137.5L384.23,137.491L383.996,137.485L383.761,137.482L383.525,137.48L370.661,137.48ZM371.657,138.477L383.522,138.477L383.751,138.478L383.976,138.481L384.199,138.487L384.421,138.495L384.641,138.505L384.86,138.518L385.078,138.533L385.294,138.55L385.509,138.57L385.722,138.592L385.934,138.616L386.145,138.642L386.354,138.671L386.562,138.702L386.768,138.735L386.973,138.77L387.177,138.808L387.379,138.848L387.58,138.89L387.78,138.934L387.978,138.981L388.175,139.03L388.37,139.081L388.564,139.135L388.757,139.19L388.949,139.248L389.139,139.308L389.328,139.371L389.515,139.435L389.701,139.502L389.886,139.571L390.07,139.643L390.253,139.716L390.434,139.792L390.614,139.869L390.791,139.949L390.967,140.03L391.141,140.113L391.314,140.198L391.485,140.284L391.654,140.373L391.821,140.463L391.987,140.555L392.151,140.649L392.313,140.745L392.473,140.843L392.632,140.943L392.789,141.044L392.944,141.147L393.098,141.252L393.25,141.359L393.401,141.468L393.55,141.579L393.697,141.691L393.842,141.805L393.986,141.922L394.128,142.04L394.269,142.16L394.408,142.282L394.545,142.405L394.681,142.531L394.815,142.658L394.948,142.788L395.079,142.919L395.208,143.052L395.336,143.187L395.461,143.324L395.585,143.462L395.707,143.601L395.827,143.743L395.945,143.886L396.062,144.03L396.176,144.177L396.289,144.325L396.4,144.474L396.509,144.626L396.617,144.779L396.722,144.933L396.826,145.09L396.928,145.248L397.028,145.408L397.127,145.569L397.223,145.733L397.318,145.898L397.411,146.065L397.502,146.233L397.592,146.403L397.679,146.575L397.765,146.749L397.849,146.925L397.931,147.102L398.012,147.281L398.09,147.462L398.167,147.645L398.242,147.829L398.315,148.015L398.386,148.202L398.455,148.39L398.521,148.58L398.585,148.771L398.647,148.963L398.707,149.156L398.764,149.351L398.82,149.548L398.873,149.746L398.923,149.945L398.972,150.145L399.018,150.347L399.062,150.551L399.104,150.755L399.144,150.962L399.181,151.169L399.216,151.378L399.249,151.589L399.28,151.801L399.308,152.014L399.335,152.229L399.358,152.445L399.38,152.663L399.399,152.882L399.417,153.103L399.431,153.325L399.444,153.549L399.454,153.774L399.462,154L399.468,154.228L399.471,154.458L399.473,154.688L399.471,154.919L399.468,155.149L399.462,155.377L399.454,155.603L399.444,155.828L399.431,156.052L399.417,156.274L399.399,156.495L399.38,156.714L399.358,156.932L399.335,157.148L399.308,157.363L399.28,157.576L399.249,157.788L399.216,157.999L399.181,158.208L399.144,158.415L399.104,158.622L399.062,158.826L399.018,159.03L398.972,159.232L398.923,159.432L398.873,159.631L398.82,159.829L398.764,160.026L398.707,160.22L398.647,160.414L398.585,160.606L398.521,160.797L398.455,160.987L398.386,161.175L398.315,161.362L398.242,161.548L398.167,161.732L398.09,161.915L398.012,162.095L397.931,162.274L397.849,162.452L397.765,162.627L397.679,162.801L397.592,162.972L397.503,163.142L397.411,163.31L397.318,163.477L397.224,163.642L397.127,163.805L397.029,163.966L396.929,164.125L396.827,164.283L396.723,164.439L396.617,164.593L396.51,164.746L396.401,164.896L396.29,165.045L396.177,165.193L396.063,165.339L395.946,165.483L395.828,165.625L395.708,165.766L395.586,165.905L395.463,166.042L395.337,166.177L395.21,166.312L395.081,166.444L394.95,166.575L394.817,166.703L394.683,166.83L394.547,166.955L394.41,167.078L394.271,167.2L394.13,167.319L393.988,167.437L393.844,167.552L393.698,167.666L393.551,167.778L393.402,167.889L393.252,167.997L393.1,168.104L392.946,168.208L392.79,168.311L392.633,168.412L392.474,168.512L392.314,168.609L392.152,168.705L391.988,168.798L391.822,168.89L391.655,168.981L391.486,169.069L391.315,169.155L391.142,169.24L390.968,169.323L390.792,169.404L390.614,169.483L390.434,169.561L390.253,169.637L390.07,169.71L389.886,169.782L389.701,169.851L389.515,169.918L389.328,169.982L389.139,170.045L388.949,170.105L388.757,170.163L388.564,170.218L388.37,170.272L388.175,170.323L387.978,170.372L387.78,170.419L387.58,170.463L387.379,170.505L387.177,170.545L386.973,170.583L386.768,170.618L386.562,170.651L386.354,170.682L386.145,170.711L385.934,170.737L385.722,170.761L385.509,170.783L385.294,170.803L385.078,170.82L384.86,170.835L384.641,170.848L384.421,170.858L384.199,170.866L383.976,170.872L383.751,170.875L383.522,170.876L371.657,170.876L371.657,138.477ZM374.345,140.252L374.345,169.101L383.527,169.101L383.707,169.1L383.889,169.097L384.069,169.092L384.249,169.086L384.428,169.077L384.606,169.067L384.783,169.054L384.959,169.04L385.135,169.024L385.309,169.006L385.483,168.986L385.655,168.964L385.827,168.94L385.998,168.914L386.168,168.886L386.337,168.857L386.505,168.825L386.672,168.791L386.839,168.756L387.004,168.718L387.168,168.679L387.332,168.638L387.495,168.594L387.656,168.549L387.817,168.502L387.977,168.452L388.135,168.401L388.293,168.348L388.45,168.293L388.606,168.236L388.76,168.177L388.914,168.116L389.066,168.053L389.217,167.989L389.367,167.923L389.515,167.855L389.662,167.785L389.808,167.714L389.952,167.64L390.095,167.565L390.237,167.489L390.377,167.41L390.517,167.33L390.654,167.248L390.791,167.164L390.926,167.078L391.059,166.991L391.191,166.902L391.322,166.811L391.452,166.718L391.58,166.624L391.706,166.528L391.831,166.43L391.955,166.33L392.077,166.229L392.198,166.126L392.318,166.021L392.436,165.915L392.552,165.806L392.667,165.697L392.781,165.585L392.893,165.472L393.004,165.357L393.113,165.24L393.22,165.122L393.327,165.002L393.431,164.88L393.534,164.757L393.636,164.632L393.736,164.505L393.834,164.377L393.931,164.248L394.026,164.116L394.119,163.983L394.211,163.849L394.301,163.713L394.39,163.576L394.477,163.437L394.562,163.296L394.646,163.154L394.728,163.01L394.809,162.865L394.888,162.719L394.965,162.571L395.041,162.421L395.115,162.27L395.188,162.117L395.259,161.963L395.328,161.808L395.396,161.651L395.462,161.492L395.527,161.332L395.59,161.171L395.652,161.008L395.712,160.844L395.77,160.678L395.827,160.51L395.882,160.341L395.936,160.17L395.987,159.998L396.037,159.825L396.085,159.651L396.131,159.475L396.175,159.298L396.217,159.12L396.257,158.94L396.296,158.76L396.333,158.578L396.368,158.395L396.401,158.211L396.432,158.025L396.462,157.839L396.489,157.651L396.515,157.462L396.539,157.271L396.561,157.08L396.582,156.887L396.6,156.693L396.617,156.498L396.632,156.302L396.646,156.105L396.657,155.906L396.667,155.706L396.675,155.505L396.681,155.303L396.685,155.099L396.688,154.894L396.689,154.688L396.688,154.483L396.685,154.278L396.681,154.074L396.675,153.872L396.667,153.671L396.657,153.471L396.646,153.272L396.632,153.075L396.617,152.879L396.6,152.684L396.582,152.49L396.561,152.297L396.539,152.105L396.515,151.915L396.489,151.726L396.462,151.538L396.432,151.352L396.401,151.166L396.368,150.982L396.333,150.799L396.296,150.617L396.257,150.437L396.217,150.257L396.175,150.079L396.131,149.902L396.085,149.726L396.037,149.552L395.987,149.379L395.936,149.207L395.882,149.036L395.827,148.867L395.77,148.699L395.712,148.533L395.652,148.369L395.59,148.206L395.527,148.045L395.463,147.885L395.396,147.726L395.329,147.569L395.259,147.413L395.188,147.259L395.116,147.106L395.041,146.955L394.966,146.805L394.888,146.657L394.809,146.51L394.729,146.365L394.647,146.221L394.563,146.079L394.478,145.938L394.391,145.798L394.302,145.661L394.212,145.524L394.12,145.389L394.027,145.256L393.932,145.124L393.835,144.994L393.737,144.866L393.637,144.739L393.536,144.613L393.433,144.489L393.329,144.367L393.223,144.246L393.115,144.127L393.006,144.01L392.895,143.894L392.783,143.78L392.67,143.668L392.555,143.557L392.438,143.448L392.32,143.341L392.201,143.236L392.08,143.132L391.957,143.03L391.833,142.93L391.708,142.832L391.582,142.735L391.453,142.64L391.324,142.547L391.193,142.456L391.061,142.366L390.927,142.278L390.792,142.192L390.656,142.108L390.518,142.026L390.379,141.945L390.238,141.866L390.096,141.789L389.953,141.714L389.809,141.64L389.663,141.568L389.516,141.499L389.367,141.43L389.217,141.364L389.066,141.3L388.914,141.237L388.76,141.176L388.606,141.117L388.45,141.06L388.293,141.005L388.135,140.952L387.977,140.9L387.817,140.851L387.656,140.804L387.495,140.759L387.332,140.715L387.168,140.674L387.004,140.635L386.839,140.597L386.672,140.562L386.505,140.528L386.337,140.496L386.168,140.467L385.998,140.439L385.827,140.413L385.655,140.389L385.483,140.367L385.309,140.347L385.135,140.329L384.959,140.313L384.783,140.299L384.606,140.286L384.428,140.276L384.249,140.267L384.069,140.261L383.889,140.256L383.707,140.253L383.527,140.252L374.345,140.252ZM375.341,141.248L383.525,141.248L383.697,141.249L383.868,141.252L384.038,141.256L384.207,141.263L384.375,141.271L384.542,141.281L384.708,141.292L384.873,141.305L385.037,141.321L385.201,141.338L385.363,141.356L385.524,141.377L385.684,141.399L385.843,141.423L386.001,141.449L386.159,141.476L386.315,141.506L386.47,141.537L386.625,141.57L386.778,141.605L386.93,141.641L387.082,141.68L387.232,141.72L387.381,141.761L387.53,141.805L387.677,141.851L387.823,141.898L387.969,141.947L388.113,141.997L388.257,142.05L388.399,142.104L388.541,142.16L388.681,142.218L388.82,142.278L388.958,142.339L389.094,142.401L389.229,142.465L389.363,142.531L389.496,142.599L389.627,142.667L389.757,142.738L389.885,142.81L390.012,142.884L390.138,142.959L390.263,143.036L390.386,143.115L390.508,143.195L390.629,143.276L390.748,143.36L390.866,143.445L390.983,143.531L391.098,143.619L391.212,143.709L391.325,143.8L391.437,143.893L391.547,143.987L391.656,144.084L391.763,144.181L391.869,144.28L391.974,144.381L392.078,144.484L392.18,144.588L392.281,144.693L392.381,144.8L392.479,144.909L392.576,145.019L392.671,145.131L392.765,145.244L392.858,145.359L392.949,145.475L393.039,145.593L393.128,145.712L393.215,145.833L393.3,145.955L393.385,146.079L393.467,146.204L393.549,146.331L393.629,146.459L393.708,146.589L393.785,146.72L393.861,146.853L393.935,146.987L394.008,147.123L394.079,147.26L394.15,147.399L394.218,147.539L394.286,147.681L394.352,147.824L394.416,147.969L394.479,148.115L394.541,148.263L394.601,148.412L394.66,148.563L394.718,148.715L394.774,148.869L394.829,149.024L394.882,149.181L394.933,149.339L394.983,149.498L395.031,149.659L395.078,149.821L395.122,149.984L395.165,150.149L395.207,150.314L395.246,150.482L395.284,150.65L395.321,150.82L395.355,150.991L395.388,151.163L395.419,151.337L395.449,151.512L395.477,151.688L395.503,151.866L395.527,152.045L395.55,152.225L395.571,152.407L395.591,152.59L395.608,152.774L395.624,152.96L395.639,153.146L395.651,153.335L395.662,153.524L395.672,153.715L395.679,153.907L395.685,154.1L395.689,154.295L395.692,154.491L395.693,154.688L395.692,154.886L395.689,155.082L395.685,155.277L395.679,155.47L395.672,155.662L395.662,155.853L395.651,156.042L395.639,156.23L395.624,156.417L395.608,156.603L395.591,156.787L395.571,156.97L395.55,157.152L395.527,157.332L395.503,157.511L395.477,157.688L395.449,157.865L395.419,158.04L395.388,158.214L395.355,158.386L395.321,158.557L395.284,158.727L395.246,158.895L395.207,159.062L395.165,159.228L395.122,159.393L395.078,159.556L395.031,159.718L394.983,159.879L394.933,160.038L394.882,160.196L394.829,160.352L394.774,160.508L394.718,160.661L394.66,160.814L394.601,160.964L394.541,161.113L394.479,161.261L394.416,161.407L394.352,161.552L394.286,161.695L394.218,161.836L394.15,161.976L394.079,162.115L394.008,162.252L393.935,162.387L393.861,162.521L393.785,162.653L393.708,162.784L393.629,162.914L393.549,163.042L393.467,163.168L393.385,163.293L393.3,163.416L393.215,163.538L393.128,163.658L393.039,163.776L392.949,163.894L392.858,164.009L392.765,164.123L392.671,164.236L392.576,164.347L392.479,164.456L392.381,164.564L392.281,164.671L392.18,164.776L392.078,164.879L391.974,164.981L391.869,165.081L391.763,165.18L391.656,165.277L391.547,165.372L391.437,165.466L391.325,165.558L391.212,165.649L391.098,165.738L390.983,165.826L390.866,165.912L390.748,165.997L390.629,166.079L390.508,166.161L390.386,166.241L390.263,166.319L390.138,166.395L390.012,166.47L389.885,166.544L389.757,166.616L389.627,166.686L389.496,166.755L389.363,166.822L389.229,166.888L389.094,166.952L388.958,167.014L388.82,167.075L388.681,167.135L388.541,167.192L388.399,167.249L388.257,167.303L388.113,167.355L387.969,167.406L387.823,167.455L387.677,167.502L387.53,167.548L387.381,167.591L387.232,167.633L387.082,167.673L386.93,167.712L386.778,167.748L386.625,167.783L386.47,167.816L386.315,167.847L386.159,167.876L386.001,167.904L385.843,167.93L385.684,167.954L385.524,167.976L385.363,167.997L385.201,168.015L385.037,168.032L384.873,168.047L384.708,168.061L384.542,168.072L384.375,168.082L384.207,168.09L384.038,168.096L383.868,168.101L383.697,168.104L383.525,168.104L375.341,168.104L375.341,141.248Z" style="fill:black;"/>
            </g>
        </g>
    </g>
</svg>
